<?xml version="1.0" encoding="utf-8"?>
<!-- Generator: Adobe Illustrator 25.0.0, SVG Export Plug-In . SVG Version: 6.00 Build 0)  -->
<svg version="1.1" xmlns="http://www.w3.org/2000/svg" xmlns:xlink="http://www.w3.org/1999/xlink" x="0px" y="0px"
	 viewBox="0 0 841.89 262" style="enable-background:new 0 0 841.89 262;" xml:space="preserve">
<style type="text/css">
	.st0{display:none;}
	.st1{display:inline;}
	.st2{clip-path:url(#SVGID_2_);}
	.st3{clip-path:url(#SVGID_6_);fill:#00448F;}
	.st4{clip-path:url(#SVGID_6_);fill:#00993C;}
	.st5{clip-path:url(#SVGID_6_);fill:#FDF7FA;}
	.st6{clip-path:url(#SVGID_6_);fill:#FAFDFC;}
	.st7{clip-path:url(#SVGID_6_);fill:#F4FAFC;}
	.st8{clip-path:url(#SVGID_6_);fill:#FFFFFF;}
	.st9{fill:#00448F;}
	.st10{fill:#00993C;}
	.st11{fill:#FDF7FA;}
	.st12{fill:#FAFDFC;}
	.st13{fill:#F4FAFC;}
	.st14{fill:#FFFFFF;}
</style>
<g id="Referencia" class="st0">
	<g class="st1">
		<g>
			<defs>
				<rect id="SVGID_1_" x="76.6" y="54.16" width="688.68" height="486.95"/>
			</defs>
			<clipPath id="SVGID_2_">
				<use xlink:href="#SVGID_1_"  style="overflow:visible;"/>
			</clipPath>
			<g class="st2">
				<defs>
					<rect id="SVGID_3_" x="111.25" y="145.65" width="619.39" height="303.98"/>
				</defs>
				<clipPath id="SVGID_4_">
					<use xlink:href="#SVGID_3_"  style="overflow:visible;"/>
				</clipPath>
			</g>
			<g class="st2">
				<defs>
					<rect id="SVGID_5_" x="76.6" y="54.16" width="688.68" height="486.95"/>
				</defs>
				<clipPath id="SVGID_6_">
					<use xlink:href="#SVGID_5_"  style="overflow:visible;"/>
				</clipPath>
				<path class="st3" d="M428.12,216.48h236.06l-23.4,130.68c0,0-1.04,5.03-5.96,10.87c-4.92,5.84-11.54,6.4-11.54,6.4h-232.2
					c0,0,6.6-3.65,10.58-8.79c3.97-5.14,5.43-11.54,5.43-11.54L428.12,216.48z"/>
				<path class="st4" d="M203.51,216.48h225.07l-21.27,127.14c0,0-1.81,8.94-6.31,13.79c-4.5,4.85-10.05,7.01-10.05,7.01H163.55
					c0,0,7.25-0.93,11.69-7.01c4.44-6.08,5.38-11.69,5.38-11.69L203.51,216.48z"/>
				<polygon class="st5" points="509.45,238.04 490.52,344.09 551.06,344.09 554.33,323.29 518.1,323.29 523.71,298.29 
					555.73,298.29 559.47,279.01 526.51,279.01 530.25,258.08 564.61,258.08 568.82,238.04 				"/>
				<path class="st5" d="M470.42,288.7c0,0,21.27-6.54,21.27-27.81s-23.61-22.85-23.61-22.85l-43.13,0.18l-17.74,105.88h47.55
					c0,0,29.45-1.4,32.25-25.01C489.82,295.48,470.42,288.7,470.42,288.7 M459.09,312.07c-2.64,15.48-23.52,12.22-23.52,12.22
					l4.42-26.01C439.02,298.82,461.39,298.56,459.09,312.07 M463.29,266.97c-4.21,12.83-19.28,12.04-19.28,12.04l3.4-21.5
					C447.41,257.5,467.5,254.14,463.29,266.97"/>
				<polygon class="st6" points="384.88,238.22 366.42,344.09 390.72,344.09 410.36,238.22 				"/>
				<path class="st7" d="M364.25,262.75c-1.4-22.96-21.56-24.53-21.56-24.53h-45.75l-18.76,105.88h26.29l5.96-40.67
					c0,0,9.29-2.1,13.5,3.16c4.21,5.26,2.98,37.51,2.98,37.51h26.29c0,0-1.87-5.89-2.45-13.32c-0.86-11.04-0.71-25.47-2.28-28.92
					c-2.63-5.79-7.01-7.54-7.01-7.54S365.66,285.71,364.25,262.75 M337.79,270.12c-3.68,17.88-23.66,14.72-23.66,14.72l4.91-29.45
					c0,0,4.06-0.19,7.13-0.02C332.54,255.71,340.27,258.05,337.79,270.12"/>
				<polygon class="st8" points="223.85,238.22 284.5,238.22 280.99,258.55 244.88,258.55 241.03,282.04 274.68,282.04 
					271.17,302.38 237.52,302.38 230.16,344.09 205.27,344.09 				"/>
				<polygon class="st5" points="581.91,238.04 562.97,344.09 623.51,344.09 627.48,323.06 592.07,323.06 607.62,238.04 				"/>
			</g>
		</g>
	</g>
</g>
<g id="Vetorizada">
	<path id="Peça_azul" class="st9" d="M443.13,8.14h390.02l-38.66,215.91c0,0-1.72,8.3-9.85,17.96
		c-8.13,9.65-19.07,10.57-19.07,10.57H381.92c0,0,10.91-6.03,17.47-14.53c6.56-8.5,8.98-19.07,8.98-19.07L443.13,8.14z"/>
	<path class="st10" d="M72.03,8.14H443.9l-35.14,210.07c0,0-2.99,14.77-10.43,22.78c-7.43,8.01-16.6,11.58-16.6,11.58H6
		c0,0,11.97-1.54,19.31-11.58c7.34-10.04,8.88-19.31,8.88-19.31L72.03,8.14z"/>
	<polygon id="E" class="st11" points="577.51,43.77 546.23,218.98 646.24,218.98 651.65,184.62 591.8,184.62 601.06,143.3 
		653.97,143.3 660.15,111.45 605.7,111.45 611.88,76.88 668.64,76.88 675.59,43.77 	"/>
	<path id="B" class="st11" d="M513.02,127.46c0,0,35.14-10.81,35.14-45.95s-39-37.75-39-37.75l-71.27,0.29l-29.3,174.93h78.56
		c0,0,48.66-2.32,53.29-41.32C545.07,138.66,513.02,127.46,513.02,127.46z M494.29,166.08c-4.37,25.58-38.86,20.2-38.86,20.2
		l7.31-42.97C461.14,144.17,498.1,143.75,494.29,166.08z M501.24,91.55c-6.95,21.2-31.86,19.89-31.86,19.89L475,75.91
		C475,75.91,508.19,70.36,501.24,91.55z"/>
	<polyline id="I" class="st12" points="371.69,44.06 341.18,218.98 381.34,218.98 413.78,44.06 371.69,44.06 	"/>
	<path id="R" class="st13" d="M337.61,84.58c-2.32-37.94-35.62-40.53-35.62-40.53H226.4l-30.99,174.93h43.44l9.85-67.19
		c0,0,15.35-3.48,22.3,5.21c6.95,8.69,4.92,61.98,4.92,61.98h43.44c0,0-3.1-9.72-4.05-22.01c-1.42-18.24-1.17-42.08-3.77-47.79
		c-4.34-9.56-11.58-12.45-11.58-12.45S339.93,122.52,337.61,84.58z M293.88,96.77c-6.08,29.54-39.1,24.33-39.1,24.33l8.11-48.66
		c0,0,6.71-0.31,11.78-0.04C285.21,72.96,297.99,76.82,293.88,96.77z"/>
	<polygon id="F" class="st14" points="105.63,44.06 205.83,44.06 200.04,77.65 140.38,77.65 134.01,116.46 189.62,116.46 
		183.82,150.05 128.22,150.05 116.05,218.98 74.93,218.98 	"/>
	<polygon id="L" class="st11" points="697.22,43.77 665.94,218.98 765.95,218.98 772.52,184.23 714.01,184.23 739.69,43.77 	"/>
</g>
</svg>
